<svg width="20" height="19" viewBox="0 0 20 19" fill="none" xmlns="http://www.w3.org/2000/svg">
<path d="M0.935547 6.79242C0.935547 5.68785 1.83098 4.79242 2.93555 4.79242H17.4404C18.545 4.79242 19.4404 5.68785 19.4404 6.79242V16.2762C19.4404 17.3807 18.545 18.2762 17.4404 18.2762H2.93555C1.83098 18.2762 0.935547 17.3807 0.935547 16.2762V6.79242Z" stroke="#0061FF" stroke-linecap="round" stroke-linejoin="round"/>
<path d="M14.2333 4.79243C14.2333 3.7196 13.8071 2.69071 13.0485 1.9321C12.2899 1.1735 11.261 0.747314 10.1882 0.747314C9.11535 0.747314 8.08646 1.1735 7.32785 1.9321C6.56925 2.69071 6.14307 3.7196 6.14307 4.79243" stroke="#0061FF" stroke-linecap="round" stroke-linejoin="round"/>
<path d="M0.935547 10.1859L8.83962 10.1859" stroke="#0061FF" stroke-linecap="round" stroke-linejoin="round"/>
<path d="M11.5366 10.1859H19.4406" stroke="#0061FF" stroke-linecap="round" stroke-linejoin="round"/>
<path d="M10.1877 12.2076C9.83012 12.2076 9.48715 12.0655 9.23428 11.8127C8.98142 11.5598 8.83936 11.2168 8.83936 10.8592V9.51085C8.83936 9.15324 8.98142 8.81027 9.23428 8.5574C9.48715 8.30454 9.83012 8.16248 10.1877 8.16248C10.5453 8.16248 10.8883 8.30454 11.1412 8.5574C11.394 8.81027 11.5361 9.15324 11.5361 9.51085V10.8592C11.5361 11.2168 11.394 11.5598 11.1412 11.8127C10.8883 12.0655 10.5453 12.2076 10.1877 12.2076Z" stroke="#0061FF" stroke-linecap="round" stroke-linejoin="round"/>
</svg>
