<svg width="20" height="25" viewBox="0 0 20 25" fill="none" xmlns="http://www.w3.org/2000/svg">
<path d="M18.7104 9.85519C18.7104 14.8389 15.2474 17.7056 12.6523 20.4814C11.6347 21.5922 10.6998 22.7761 9.85519 24.0235C9.01357 22.7784 8.08104 21.5972 7.06522 20.4897C4.47005 17.7151 1 14.8436 1 9.85519C1 7.50665 1.93296 5.2543 3.59363 3.59363C5.2543 1.93295 7.50665 1 9.85519 1C12.2037 1 14.4561 1.93295 16.1168 3.59363C17.7774 5.2543 18.7104 7.50665 18.7104 9.85519V9.85519Z" stroke="#0061FF" stroke-linecap="round" stroke-linejoin="round"/>
<path d="M6.31299 9.85519C6.31299 10.7946 6.68617 11.6955 7.35044 12.3598C8.01471 13.0241 8.91565 13.3973 9.85507 13.3973C10.7945 13.3973 11.6954 13.0241 12.3597 12.3598C13.024 11.6955 13.3971 10.7946 13.3971 9.85519C13.3971 8.91577 13.024 8.01483 12.3597 7.35056C11.6954 6.68629 10.7945 6.31311 9.85507 6.31311C8.91565 6.31311 8.01471 6.68629 7.35044 7.35056C6.68617 8.01483 6.31299 8.91577 6.31299 9.85519Z" stroke="#0061FF" stroke-linecap="round" stroke-linejoin="round"/>
</svg>
