<svg width="58" height="58" viewBox="0 0 58 58" fill="none" xmlns="http://www.w3.org/2000/svg">
<rect width="58" height="58" fill="#F2F5FF"/>
<path d="M12.1772 23.4196C12.1772 21.7627 13.5204 20.4196 15.1772 20.4196H42.8224C44.4793 20.4196 45.8224 21.7627 45.8224 23.4196V41.9355C45.8224 43.5923 44.4793 44.9355 42.8224 44.9355H15.1772C13.5204 44.9355 12.1772 43.5923 12.1772 41.9355V23.4196Z" stroke="#0061FF" stroke-width="2" stroke-linecap="round" stroke-linejoin="round"/>
<path d="M36.355 20.4195C36.355 18.4689 35.5802 16.5981 34.2009 15.2189C32.8216 13.8396 30.9509 13.0647 29.0003 13.0647C27.0497 13.0647 25.179 13.8396 23.7997 15.2189C22.4204 16.5981 21.6455 18.4689 21.6455 20.4195" stroke="#0061FF" stroke-width="2" stroke-linecap="round" stroke-linejoin="round"/>
<path d="M12.1772 30.2257L26.5483 30.2257" stroke="#0061FF" stroke-width="2" stroke-linecap="round" stroke-linejoin="round"/>
<path d="M31.4519 30.2257H45.8228" stroke="#0061FF" stroke-width="2" stroke-linecap="round" stroke-linejoin="round"/>
<path d="M28.9994 33.9016C28.3492 33.9016 27.7257 33.6434 27.2659 33.1836C26.8061 32.7238 26.5479 32.1003 26.5479 31.4501V28.9985C26.5479 28.3483 26.8061 27.7247 27.2659 27.2649C27.7257 26.8052 28.3492 26.5469 28.9994 26.5469C29.6496 26.5469 30.2732 26.8052 30.733 27.2649C31.1927 27.7247 31.451 28.3483 31.451 28.9985V31.4501C31.451 32.1003 31.1927 32.7238 30.733 33.1836C30.2732 33.6434 29.6496 33.9016 28.9994 33.9016Z" stroke="#0061FF" stroke-width="2" stroke-linecap="round" stroke-linejoin="round"/>
</svg>
