<svg width="58" height="58" viewBox="0 0 58 58" fill="none" xmlns="http://www.w3.org/2000/svg">
<rect width="58" height="58" fill="#F2F5FF"/>
<path d="M43.021 24.7936C43.021 32.6847 37.5378 37.2238 33.4287 41.6189C31.8175 43.3777 30.3373 45.2522 28.9999 47.2274C27.6674 45.2559 26.1908 43.3857 24.5824 41.632C20.4733 37.2387 14.9789 32.6922 14.9789 24.7936C14.9789 21.075 16.4561 17.5087 19.0856 14.8793C21.715 12.2498 25.2813 10.7726 28.9999 10.7726C32.7186 10.7726 36.2849 12.2498 38.9143 14.8793C41.5438 17.5087 43.021 21.075 43.021 24.7936V24.7936Z" stroke="#0061FF" stroke-width="2" stroke-linecap="round" stroke-linejoin="round"/>
<path d="M28.9999 30.4021C32.0974 30.4021 34.6083 27.8911 34.6083 24.7937C34.6083 21.6962 32.0974 19.1852 28.9999 19.1852C25.9025 19.1852 23.3915 21.6962 23.3915 24.7937C23.3915 27.8911 25.9025 30.4021 28.9999 30.4021Z" stroke="#0061FF" stroke-width="2" stroke-linecap="round" stroke-linejoin="round"/>
</svg>
